<?xml version="1.0" encoding="utf-8"?>
<!-- Generator: Adobe Illustrator 19.0.0, SVG Export Plug-In . SVG Version: 6.00 Build 0)  -->
<svg version="1.1" id="Layer_1" xmlns="http://www.w3.org/2000/svg" xmlns:xlink="http://www.w3.org/1999/xlink" x="0px" y="0px"
	 viewBox="0 0 318.9 62.1" style="enable-background:new 0 0 318.9 62.1;" xml:space="preserve">
<style type="text/css">
	.st0{fill:#FFFFFF;}
</style>
<g id="XMLID_212_">
	<path id="XMLID_213_" class="st0" d="M27.7,18.6v11.3c-8.4,0-13.5,4.8-13.5,12.4l-0.1-0.2V61H0.6V19.6h13.5v7.7
		C16.8,21.9,21.7,18.6,27.7,18.6z"/>
	<path id="XMLID_215_" class="st0" d="M62.8,47.4l8,8.1c-3.7,3.8-10.8,6.4-17,6.4c-12.8,0-22.2-9-22.2-21.8
		c0-12.6,9.1-21.5,21.6-21.5C66.3,18.6,74,28.2,74,44H44.5c1.3,4.2,4.6,7,9,7C56.6,51,60.3,49.6,62.8,47.4z M44.6,35.8h16.8
		c-1.1-3.8-3.9-6.2-8-6.2C49.4,29.5,46.1,31.9,44.6,35.8z"/>
	<path id="XMLID_218_" class="st0" d="M127.1,40.2c0,12.7-7.8,21.7-19,21.7c-5.5,0-10.2-2.3-13.5-6.2V61H81V5h13.6v19.8
		c3.3-3.9,8-6.2,13.5-6.2C119.3,18.6,127.1,27.6,127.1,40.2z M114.1,40.2c0-6-4.2-10.3-10-10.3c-5.6,0-9.4,4.3-9.4,10.3
		c0,6.1,3.8,10.4,9.4,10.4C109.9,50.6,114.1,46.3,114.1,40.2z"/>
	<path id="XMLID_221_" class="st0" d="M134.2,7.4c0-3.8,3.2-7,7.2-7c3.9,0,7,3.3,7,7c0,3.9-3.1,7.2-7,7.2
		C137.4,14.6,134.2,11.3,134.2,7.4z M134.6,19.6h13.5V61h-13.5V19.6z"/>
	<path id="XMLID_224_" class="st0" d="M198.2,34.6V61h-13V37.7c0-4.6-2.9-7.8-7-7.8S171,33,171,37.1l-0.1-0.2V61h-13.5V19.6h13.5
		v4.7c2.6-3.5,7-5.7,12.2-5.7C191.9,18.6,198.2,25.3,198.2,34.6z"/>
	<path id="XMLID_226_" class="st0" d="M207,7.4c0-3.8,3.2-7,7.2-7c3.9,0,7,3.3,7,7c0,3.9-3.1,7.2-7,7.2C210.2,14.6,207,11.3,207,7.4
		z M207.3,19.6h13.5V61h-13.5V19.6z"/>
	<path id="XMLID_238_" class="st0" d="M227,55.7l5.4-8.7c3.8,2.7,9.1,4.7,14.1,4.7c3,0,4.6-1,4.6-2.6c0-2-2.7-2.8-6.8-3.8
		c-8-1.8-15.4-3.9-15.5-12.9c0-7.9,6.5-13.8,16.7-13.8c6.2,0,12.2,2.2,16.8,5.3l-5,8.9c-3.6-2.3-8.1-4.1-11.8-4.1
		c-2.5,0-4.2,1.1-4.2,2.4c0,1.8,1.8,2.2,6.6,3.5c7.4,1.8,15.6,4.2,15.6,13.6c0,8.3-6.7,13.7-17.4,13.7
		C239.3,61.9,232.1,59.6,227,55.7z"/>
	<path id="XMLID_240_" class="st0" d="M296.4,58c-2.5,2.3-6.6,3.9-10.1,3.9c-7.8,0-13.2-5.5-13.2-13.3V30.4h-5.4V19.6h5.4V8.2h13
		v11.4h8.6v10.8h-8.6v15.8c0,2.6,1.6,4.5,3.8,4.5c1.5,0,3-0.6,3.8-1.4L296.4,58z"/>
	<path id="XMLID_242_" class="st0" d="M302.3,53.5c0-4.3,3.7-8.1,8.5-8.1c4.4,0,8.1,3.8,8.1,8.1c0,4.6-3.7,8.4-8.1,8.4
		C306,61.9,302.3,58.2,302.3,53.5z"/>
</g>
</svg>
