<?xml version="1.0" encoding="utf-8"?>
<!-- Generator: Adobe Illustrator 19.0.0, SVG Export Plug-In . SVG Version: 6.00 Build 0)  -->
<svg version="1.1" id="Layer_1" xmlns="http://www.w3.org/2000/svg" xmlns:xlink="http://www.w3.org/1999/xlink" x="0px" y="0px"
	 viewBox="0 0 282 61.6" style="enable-background:new 0 0 282 61.6;" xml:space="preserve">
<style type="text/css">
	.st0{fill:#FFFFFF;}
</style>
<g id="XMLID_26_">
	<path id="XMLID_47_" class="st0" d="M27.5,18.3v11.3C19.1,29.6,14,34.4,14,42l-0.1-0.2v18.8H0.4V19.3h13.5V27
		C16.6,21.6,21.5,18.3,27.5,18.3z"/>
	<path id="XMLID_44_" class="st0" d="M58,47.1l8,8.1c-3.7,3.8-10.8,6.4-17,6.4c-12.8,0-22.2-9-22.2-21.8c0-12.6,9.1-21.5,21.6-21.5
		c13.1,0,20.8,9.6,20.8,25.4H39.7c1.3,4.2,4.6,7,9,7C51.8,50.6,55.5,49.3,58,47.1z M39.8,35.4h16.8c-1.1-3.8-3.9-6.2-8-6.2
		C44.6,29.2,41.3,31.6,39.8,35.4z"/>
	<path id="XMLID_41_" class="st0" d="M117.7,39.9c0,12.7-7.8,21.7-19,21.7c-5.5,0-10.2-2.3-13.5-6.2v5.3H71.6V4.7h13.6v19.8
		c3.3-3.9,8-6.2,13.5-6.2C109.8,18.3,117.7,27.3,117.7,39.9z M104.6,39.9c0-6-4.2-10.3-10-10.3c-5.6,0-9.4,4.3-9.4,10.3
		c0,6.1,3.8,10.4,9.4,10.4C100.5,50.3,104.6,46,104.6,39.9z"/>
	<path id="XMLID_38_" class="st0" d="M120.2,7c0-3.8,3.2-7,7.2-7c3.9,0,7,3.3,7,7c0,3.9-3.1,7.2-7,7.2C123.4,14.2,120.2,11,120.2,7z
		 M120.5,19.3H134v41.4h-13.5V19.3z"/>
	<path id="XMLID_36_" class="st0" d="M179.5,34.3v26.3h-13V37.4c0-4.6-2.9-7.8-7-7.8s-7.3,3.1-7.3,7.2l-0.1-0.2v24.1h-13.5V19.3
		h13.5V24c2.6-3.5,7-5.7,12.2-5.7C173.2,18.3,179.5,25,179.5,34.3z"/>
	<path id="XMLID_33_" class="st0" d="M183.6,7c0-3.8,3.2-7,7.2-7c3.9,0,7,3.3,7,7c0,3.9-3.1,7.2-7,7.2C186.8,14.2,183.6,11,183.6,7z
		 M183.9,19.3h13.5v41.4h-13.5V19.3z"/>
	<path id="XMLID_31_" class="st0" d="M199,55.4l5.4-8.7c3.8,2.7,9.1,4.7,14.1,4.7c3,0,4.6-1,4.6-2.6c0-2-2.7-2.8-6.8-3.8
		c-8-1.8-15.4-3.9-15.5-12.9c0-7.9,6.5-13.8,16.7-13.8c6.2,0,12.2,2.2,16.8,5.3l-5,8.9c-3.6-2.3-8.1-4.1-11.8-4.1
		c-2.5,0-4.2,1.1-4.2,2.4c0,1.8,1.8,2.2,6.6,3.5c7.4,1.8,15.6,4.2,15.6,13.6c0,8.3-6.7,13.7-17.4,13.7
		C211.3,61.6,204.1,59.3,199,55.4z"/>
	<path id="XMLID_29_" class="st0" d="M263.8,57.7c-2.5,2.3-6.6,3.9-10.1,3.9c-7.8,0-13.2-5.5-13.2-13.3V30.1H235V19.3h5.4V7.9h13
		v11.4h8.6v10.8h-8.6v15.8c0,2.6,1.6,4.5,3.8,4.5c1.5,0,3-0.6,3.8-1.4L263.8,57.7z"/>
	<path id="XMLID_27_" class="st0" d="M265,53.2c0-4.3,3.7-8.1,8.5-8.1c4.4,0,8.1,3.8,8.1,8.1c0,4.6-3.7,8.4-8.1,8.4
		C268.7,61.6,265,57.8,265,53.2z"/>
</g>
</svg>
